<svg width="30" height="30" viewBox="0 0 269 269" fill="none" xmlns="http://www.w3.org/2000/svg">
<path d="M204.845 63.9158C200.479 59.5502 193.427 59.5502 189.062 63.9158L134.325 118.541L79.5873 63.8038C75.2218 59.4383 68.1697 59.4383 63.8042 63.8038C59.4386 68.1694 59.4386 75.2214 63.8042 79.587L118.541 134.324L63.8042 189.061C59.4386 193.427 59.4386 200.479 63.8042 204.845C68.1697 209.21 75.2218 209.21 79.5873 204.845L134.325 150.107L189.062 204.845C193.427 209.21 200.479 209.21 204.845 204.845C209.211 200.479 209.211 193.427 204.845 189.061L150.108 134.324L204.845 79.587C209.099 75.3334 209.099 68.1694 204.845 63.9158Z" fill="gray"/>
</svg>
